# Blender v2.80 (sub 75) OBJ File: ''
# www.blender.org
mtllib BarDoor.mtl
o Cube.038
v 55.432793 0.081614 50.273170
v 55.432793 0.081614 49.220390
v 55.409431 0.100388 49.236240
v 55.409431 0.100388 50.257320
v 55.381996 -0.013281 49.125496
v 55.381996 0.810288 49.125496
v 55.432793 0.810288 49.125496
v 55.432793 -0.013281 49.125496
v 55.432793 0.715393 50.273170
v 55.409431 0.696619 50.257320
v 55.432793 -0.013281 50.368065
v 55.432793 0.810288 50.368065
v 55.381996 0.810288 50.368065
v 55.381996 -0.013281 50.368065
v 55.381996 0.081614 50.273170
v 55.381996 0.081614 49.220390
v 55.381996 0.715393 50.273170
v 55.381996 0.715393 49.220390
v 55.432793 0.715393 49.220390
v 55.405369 0.100388 50.257320
v 55.405369 0.696619 50.257320
v 55.405369 0.696619 49.236240
v 55.405369 0.100388 49.236240
v 55.409431 0.696619 49.236240
vn 0.6265 0.7794 0.0000
vn 0.0000 0.0000 -1.0000
vn 0.5615 0.0000 -0.8275
vn 0.0000 0.0000 1.0000
vn 0.0000 -1.0000 -0.0000
vn 0.0000 1.0000 0.0000
vn -1.0000 0.0000 0.0000
vn 1.0000 0.0000 0.0000
vn -0.5612 0.0000 0.8277
vn -0.5613 0.0000 -0.8276
vn 0.6265 -0.7794 -0.0000
vn 0.5614 0.0000 0.8275
vn -0.6262 -0.7797 -0.0000
vn -0.6262 0.7797 0.0000
usemtl None
s 1
f 1//1 2//1 3//1 4//1
f 5//2 6//2 7//2 8//2
f 9//3 1//3 4//3 10//3
f 11//4 12//4 13//4 14//4
f 5//5 8//5 11//5 14//5
f 7//6 6//6 13//6 12//6
f 15//7 16//7 5//7 14//7
f 17//7 15//7 14//7 13//7
f 18//7 17//7 13//7 6//7
f 16//7 18//7 6//7 5//7
f 19//8 2//8 8//8 7//8
f 2//8 1//8 11//8 8//8
f 9//8 19//8 7//8 12//8
f 1//8 9//8 12//8 11//8
f 20//7 21//7 22//7 23//7
f 3//8 24//8 10//8 4//8
f 18//9 16//9 23//9 22//9
f 15//10 17//10 21//10 20//10
f 19//11 9//11 10//11 24//11
f 2//12 19//12 24//12 3//12
f 17//13 18//13 22//13 21//13
f 16//14 15//14 20//14 23//14
