# Blender v2.80 (sub 75) OBJ File: ''
# www.blender.org
mtllib PictureFrame4.mtl
o Cube_Cube.005
v -0.946115 -1.591164 0.538187
v -0.946115 1.593524 0.538187
v -0.946115 -1.591164 0.517128
v -0.946115 1.593524 0.517128
v 1.053885 -1.591164 0.538187
v 1.053885 1.593524 0.538187
v 1.053885 -1.591164 0.517128
v 1.053885 1.593524 0.517128
v -1.005820 -1.643433 0.515595
v -1.005820 1.645793 0.515595
v 1.113590 -1.643433 0.515595
v 1.113590 1.645793 0.515595
v -0.968830 -1.611051 0.561984
v -0.946115 -1.591164 0.539998
v -0.952768 -1.596989 0.555303
v -0.946115 1.593524 0.539998
v -0.968830 1.613411 0.561984
v -0.952768 1.599349 0.555303
v 1.090874 -1.623547 0.562350
v 1.113590 -1.643433 0.541530
v 1.106937 -1.637609 0.556494
v 1.053885 -1.591164 0.539998
v 1.076600 -1.611051 0.561984
v 1.060538 -1.596989 0.555303
v -1.005820 -1.643433 0.541530
v -0.983104 -1.623547 0.562350
v -0.999167 -1.637609 0.556494
v 1.076600 1.613411 0.561984
v 1.053885 1.593524 0.539998
v 1.060538 1.599349 0.555303
v -0.983104 1.625907 0.562350
v -1.005820 1.645793 0.541530
v -0.999167 1.639969 0.556494
v 1.113590 1.645793 0.541530
v 1.090874 1.625907 0.562350
v 1.106937 1.639969 0.556494
vt 0.375000 0.250000
vt 0.625000 0.250000
vt 0.625000 0.500000
vt 0.375000 0.500000
vt 0.375000 0.500000
vt 0.375000 0.250000
vt 0.999926 0.000074
vt 0.999926 0.999932
vt 0.000074 0.999931
vt 0.000074 0.000074
vt 0.625000 0.500000
vt 0.724539 0.333735
vt 0.761770 0.333856
vt 0.762336 0.334387
vt 0.723970 0.334262
vt 0.721877 0.336045
vt 0.722607 0.335462
vt 0.763678 0.335614
vt 0.764424 0.336271
vt 0.999926 0.999932
vt 0.000074 0.999931
vt 0.625000 0.250000
vt 0.764424 0.305651
vt 0.763748 0.306287
vt 0.000074 0.000074
vt 0.999926 0.000074
vt 0.761818 0.308019
vt 0.762386 0.307491
vt 0.724683 0.308002
vt 0.724121 0.307474
vt 0.722138 0.305688
vt 0.722789 0.306256
vt 0.760777 0.309028
vt 0.725776 0.308949
vt 0.725191 0.308487
vt 0.761292 0.308491
vt 0.725581 0.332729
vt 0.760669 0.332902
vt 0.761259 0.333367
vt 0.725066 0.333264
vt 0.723499 0.306880
vt 0.763039 0.306920
vt 0.762963 0.334985
vt 0.723315 0.334831
vn 0.0000 0.0000 -1.0000
vn 0.0000 0.0293 -0.9996
vn 0.0000 0.0000 1.0000
vn -0.0257 0.0000 -0.9997
vn -0.0257 0.0000 0.9997
vn 1.0000 0.0000 0.0000
vn 0.0000 -1.0000 0.0000
vn 0.0000 -0.0293 -0.9996
vn 0.0257 0.0000 -0.9997
vn 0.0000 1.0000 0.0000
vn -1.0000 0.0000 0.0000
vn 0.0000 0.0293 0.9996
vn 0.0000 -0.0293 0.9996
vn 0.0257 0.0000 0.9997
vn 0.9171 0.0000 0.3987
vn 0.3841 0.0000 0.9233
vn -0.9171 0.0000 0.3987
vn -0.3841 0.0000 0.9233
vn 0.0000 0.4291 0.9032
vn 0.0000 0.9346 0.3557
vn 0.0000 -0.4291 0.9032
vn 0.0000 -0.9346 0.3557
vn -0.3425 0.0000 0.9395
vn -0.9137 0.0000 0.4063
vn 0.3425 0.0000 0.9395
vn 0.9137 0.0000 0.4063
vn 0.0000 -0.9319 0.3627
vn 0.0000 -0.3845 0.9231
vn 0.0000 0.9319 0.3627
vn 0.0000 0.3845 0.9231
usemtl Material.005
s off
f 3/1/1 4/2/1 8/3/1 7/4/1
f 3/1/2 7/4/2 11/5/2 9/6/2
f 5/7/3 6/8/3 2/9/3 1/10/3
f 7/4/4 8/3/4 12/11/4 11/5/4
f 28/12/5 23/13/5 19/14/5 35/15/5
f 12/16/6 34/17/6 20/18/6 11/19/6
f 2/9/7 6/8/7 29/20/7 16/21/7
f 8/3/8 4/2/8 10/22/8 12/11/8
f 4/2/9 3/1/9 9/6/9 10/22/9
f 9/23/7 11/19/7 20/18/7 25/24/7
f 5/7/10 1/10/10 14/25/10 22/26/10
f 6/8/11 5/7/11 22/26/11 29/20/11
f 23/13/12 13/27/12 26/28/12 19/14/12
f 17/29/13 28/12/13 35/15/13 31/30/13
f 10/31/11 9/23/11 25/24/11 32/32/11
f 13/27/14 17/29/14 31/30/14 26/28/14
f 10/31/10 32/32/10 34/17/10 12/16/10
f 14/33/15 16/34/15 18/35/15 15/36/15
f 15/36/16 18/35/16 17/29/16 13/27/16
f 29/37/17 22/38/17 24/39/17 30/40/17
f 30/40/18 24/39/18 23/13/18 28/12/18
f 13/27/19 23/13/19 24/39/19 15/36/19
f 15/36/20 24/39/20 22/38/20 14/33/20
f 28/12/21 17/29/21 18/35/21 30/40/21
f 30/40/22 18/35/22 16/34/22 29/37/22
f 26/28/23 31/30/23 33/41/23 27/42/23
f 27/42/24 33/41/24 32/32/24 25/24/24
f 35/15/25 19/14/25 21/43/25 36/44/25
f 36/44/26 21/43/26 20/18/26 34/17/26
f 25/24/27 20/18/27 21/43/27 27/42/27
f 27/42/28 21/43/28 19/14/28 26/28/28
f 34/17/29 32/32/29 33/41/29 36/44/29
f 36/44/30 33/41/30 31/30/30 35/15/30
f 1/10/6 2/9/6 16/21/6 14/25/6
