# Blender v2.80 (sub 75) OBJ File: ''
# www.blender.org
mtllib PictureFrame.mtl
o Cube_Cube.001
v -2.017148 -0.709289 0.028713
v -2.017148 1.705176 0.028713
v -2.017148 1.705176 -0.028713
v -2.017148 -0.709289 -0.028713
v 2.017148 1.705176 -0.028713
v 2.017148 -0.709289 -0.028713
v 2.017148 1.705176 0.028713
v 2.017148 -0.709289 0.028713
v 1.785393 1.565260 0.087942
v -1.785393 1.565260 0.087942
v -1.710059 1.499215 0.008639
v 1.710059 1.499215 0.008639
v -1.950009 -0.674049 0.064759
v -1.950009 1.669936 0.064759
v 1.950009 1.669936 0.064759
v 1.950009 -0.674049 0.064759
v -1.914249 -0.654196 0.081598
v -1.914249 1.650083 0.081598
v 1.914249 1.650083 0.081598
v 1.914249 -0.654196 0.081598
v -1.873791 -0.626666 0.086553
v -1.873791 1.622553 0.086553
v 1.873791 1.622553 0.086553
v 1.873791 -0.626666 0.086553
v -1.785393 -0.569373 0.087942
v 1.785393 -0.569373 0.087942
v 1.710059 -0.503328 0.008639
v -1.710059 -0.503328 0.008639
vt 0.007578 0.011178
vt 0.003697 0.971050
vt -0.003662 0.997919
vt -0.003660 -0.011379
vt 0.634282 0.760133
vt 0.634097 0.874647
vt 0.077919 0.876916
vt 0.077875 0.757872
vt 0.999914 -0.018241
vt 0.999914 0.991057
vt 0.988675 0.968501
vt 0.992555 0.008629
vt 0.997243 0.973705
vt 0.010450 0.979366
vt 0.017020 0.966971
vt 0.976645 0.966594
vt 0.015425 0.006292
vt 0.013757 0.978240
vt 0.984003 0.973386
vt 0.985670 0.001438
vt 0.016863 -0.007765
vt 0.014792 0.992114
vt 0.992090 0.987443
vt 0.994160 -0.012437
vt 0.010745 -0.000966
vt 0.008844 0.985450
vt 0.998208 0.980644
vt 1.000107 -0.005772
vt 0.011710 0.005974
vt 0.998501 0.000312
vt 0.982407 0.034213
vt 0.022783 0.034590
vn -1.0000 -0.0000 0.0000
vn 0.0000 0.0000 -1.0000
vn 1.0000 0.0000 0.0000
vn 0.0000 -0.7684 0.6400
vn 0.0000 -1.0000 0.0000
vn 0.0000 1.0000 0.0000
vn -0.4565 -0.0000 0.8897
vn -0.4730 -0.0000 0.8810
vn 0.4565 -0.0000 0.8897
vn 0.4730 -0.0000 0.8810
vn 0.0000 -0.7018 0.7124
vn 0.0000 -0.7151 0.6991
vn 0.0000 0.7018 0.7124
vn 0.0000 0.7151 0.6991
vn -0.2779 -0.0302 0.9601
vn -0.2779 0.0302 0.9601
vn 0.2779 0.0302 0.9601
vn 0.2779 -0.0302 0.9601
vn 0.0000 -0.6468 0.7626
vn 0.0000 0.6468 0.7626
vn -0.0447 -0.0743 0.9962
vn -0.0447 0.0743 0.9962
vn 0.0447 0.0743 0.9962
vn 0.0447 -0.0743 0.9962
vn -0.0072 -0.0132 0.9999
vn -0.0072 0.0132 0.9999
vn 0.0072 0.0132 0.9999
vn 0.0072 -0.0132 0.9999
vn 0.0000 -0.0000 1.0000
vn -0.7250 -0.0000 0.6887
vn 0.0000 0.7684 0.6400
vn 0.7250 -0.0000 0.6887
usemtl None.001
s 1
f 1/1/1 2/2/1 3/3/1 4/4/1
f 4/5/2 3/6/2 5/7/2 6/8/2
f 6/9/3 5/10/3 7/11/3 8/12/3
f 9/13/4 10/14/4 11/15/4 12/16/4
f 4/4/5 6/9/5 8/12/5 1/1/5
f 5/10/6 3/3/6 2/2/6 7/11/6
f 13/17/7 14/18/7 2/2/8 1/1/8
f 15/19/9 16/20/9 8/12/10 7/11/10
f 16/20/11 13/17/11 1/1/12 8/12/12
f 14/18/13 15/19/13 7/11/14 2/2/14
f 17/21/15 18/22/16 14/18/7 13/17/7
f 19/23/17 20/24/18 16/20/9 15/19/9
f 20/24/19 17/21/19 13/17/11 16/20/11
f 18/22/20 19/23/20 15/19/13 14/18/13
f 21/25/21 22/26/22 18/22/16 17/21/15
f 23/27/23 24/28/24 20/24/18 19/23/17
f 24/28/24 21/25/21 17/21/15 20/24/18
f 22/26/22 23/27/23 19/23/17 18/22/16
f 25/29/25 10/14/26 22/26/22 21/25/21
f 9/13/27 26/30/28 24/28/24 23/27/23
f 26/30/28 25/29/25 21/25/21 24/28/24
f 10/14/26 9/13/27 23/27/23 22/26/22
f 27/31/29 12/16/29 11/15/29 28/32/29
f 26/30/30 9/13/30 12/16/30 27/31/30
f 25/29/31 26/30/31 27/31/31 28/32/31
f 10/14/32 25/29/32 28/32/32 11/15/32
