# Blender v2.80 (sub 75) OBJ File: ''
# www.blender.org
mtllib AlleyWayGround.mtl
o Plane.007_Plane.000
v 85.214600 -0.000018 39.000000
v 90.699135 -0.000018 39.000000
v 90.699135 -0.000018 36.000435
v 85.214600 -0.000018 36.000435
v 72.016708 -0.000018 39.000000
v 72.016708 -0.000021 45.783539
v 74.284958 -0.000021 45.783539
v 74.284958 -0.000018 39.000000
v 39.000000 -0.000018 39.000000
v 50.000000 -0.000018 36.000000
v 39.000000 -0.000018 36.000000
v 42.000000 -0.000018 39.000000
v 53.000000 -0.000018 36.000000
v 58.000000 -0.000018 39.000000
v 68.000000 -0.000018 36.000000
v 62.534645 -0.000018 39.000000
v 71.000000 -0.000018 36.000000
v 74.284958 -0.000018 36.000435
v 78.000000 -0.000018 39.000000
v 78.000000 -0.000018 36.000435
v 71.000000 -0.000018 39.000000
v 19.872009 -0.000018 39.000000
v 19.872009 -0.000018 36.000000
v 13.000000 -0.000018 36.000000
v 13.000000 -0.000018 39.000000
v 13.000000 -0.000021 45.999996
v 19.872009 -0.000021 45.999996
v 35.682640 -0.000018 39.000000
v 30.000000 -0.000018 36.000000
v 27.025000 -0.000018 36.000000
v 27.025000 -0.000018 39.000000
v 35.682640 -0.000021 45.999996
v 72.016708 -0.000018 36.000000
v 78.000000 -0.000015 31.391722
v 74.284958 -0.000015 31.391722
v 74.000000 -0.000018 36.000000
v 74.000000 -0.000016 31.390259
v 90.699135 -0.000015 31.391722
v 85.214600 -0.000015 31.391722
v 85.214600 -0.000021 45.467957
v 90.699135 -0.000021 45.467957
v 73.493294 -0.000018 34.065208
v 71.000000 -0.000018 34.065208
v 74.000000 -0.000018 34.065208
v 73.493294 -0.000017 31.388798
v 13.000000 -0.000023 54.459419
v 19.872009 -0.000023 54.459419
vt 0.902930 0.538205
vt 0.969769 0.538205
vt 0.969769 0.574760
vt 0.902930 0.574760
vt 0.742091 0.538205
vt 0.742091 0.455536
vt 0.769734 0.455536
vt 0.769734 0.538205
vt 0.339725 0.538205
vt 0.473779 0.574766
vt 0.339725 0.574766
vt 0.376285 0.538205
vt 0.510339 0.574766
vt 0.571273 0.538205
vt 0.693141 0.574766
vt 0.626536 0.538205
vt 0.729701 0.574766
vt 0.769734 0.574760
vt 0.815008 0.538205
vt 0.815008 0.574760
vt 0.729701 0.538205
vt 0.106617 0.538205
vt 0.106617 0.574766
vt 0.022870 0.574766
vt 0.022870 0.538205
vt 0.022870 0.452898
vt 0.106617 0.452898
vt 0.299297 0.538205
vt 0.230045 0.574766
vt 0.193789 0.574766
vt 0.193789 0.538205
vt 0.299297 0.452898
vt 0.742091 0.574766
vt 0.815008 0.630926
vt 0.769734 0.630926
vt 0.766261 0.574766
vt 0.766261 0.630943
vt 0.969769 0.630926
vt 0.902930 0.630926
vt 0.902930 0.459382
vt 0.969769 0.459382
vt 0.760086 0.598344
vt 0.729701 0.598344
vt 0.766261 0.598344
vt 0.760086 0.630961
vt 0.022870 0.349805
vt 0.106617 0.349805
vn 0.0000 1.0000 0.0000
usemtl None.005
s 1
f 1/1/1 2/2/1 3/3/1 4/4/1
f 5/5/1 6/6/1 7/7/1 8/8/1
f 9/9/1 10/10/1 11/11/1
f 9/9/1 12/12/1 13/13/1 10/10/1
f 12/12/1 14/14/1 15/15/1 13/13/1
f 14/14/1 16/16/1 17/17/1 15/15/1
f 18/18/1 8/8/1 19/19/1 20/20/1
f 16/16/1 21/21/1 17/17/1
f 22/22/1 23/23/1 24/24/1 25/25/1
f 22/22/1 25/25/1 26/26/1 27/27/1
f 28/28/1 9/9/1 11/11/1 29/29/1
f 28/28/1 29/29/1 30/30/1 31/31/1
f 28/28/1 31/31/1 32/32/1
f 21/21/1 5/5/1 33/33/1 17/17/1
f 18/18/1 20/20/1 34/34/1 35/35/1
f 36/36/1 18/18/1 35/35/1 37/37/1
f 4/4/1 3/3/1 38/38/1 39/39/1
f 20/20/1 4/4/1 39/39/1 34/34/1
f 19/19/1 1/1/1 4/4/1 20/20/1
f 2/2/1 1/1/1 40/40/1 41/41/1
f 17/17/1 33/33/1 42/42/1 43/43/1
f 33/33/1 36/36/1 44/44/1 42/42/1
f 42/42/1 44/44/1 37/37/1 45/45/1
f 5/5/1 8/8/1 18/18/1 36/36/1 33/33/1
f 31/31/1 22/22/1 27/27/1 32/32/1
f 31/31/1 30/30/1 23/23/1 22/22/1
f 27/27/1 26/26/1 46/46/1 47/47/1
