# Blender v2.80 (sub 75) OBJ File: ''
# www.blender.org
mtllib AlleyWayOutofBounds-1.mtl
o Cube.003_Cube.000
v 83.109184 1.123229 38.974827
v 83.109184 0.824379 38.974827
v 83.935989 1.123230 38.974827
v 83.935989 0.824379 38.974827
v 82.554886 1.123230 38.974827
v 82.554886 0.824379 38.974827
v 74.266800 0.824378 38.974827
v 74.266800 1.123229 38.974827
v 74.266800 0.824372 46.744427
v 74.266800 1.123223 46.744427
v 85.208466 1.123371 38.974827
v 85.208466 0.826606 38.974827
v 84.876663 0.826606 38.974827
v 84.876663 1.123371 38.974827
v 84.170280 1.123371 38.974827
v 84.170280 0.826606 38.974827
v 83.934830 0.826606 38.974827
v 83.934830 1.123371 38.974827
v 89.571938 0.826604 42.802723
v 89.571938 1.123369 42.802723
v 89.571938 1.123372 38.988552
v 89.571938 0.826607 38.988552
v 90.567879 0.826607 38.988552
v 90.567879 1.123372 38.988552
v 90.559586 1.123372 34.675621
v 90.559586 0.826607 34.675621
v 90.559586 0.826607 34.912083
v 90.559586 1.123372 34.912083
v 90.559586 1.123372 35.618469
v 90.559586 0.826607 35.618473
v 90.559586 0.826607 35.868950
v 90.559586 1.123372 35.868950
v 89.557327 1.123372 34.675621
v 89.557327 0.826607 34.675621
v 89.557327 0.826610 31.372372
v 89.557327 1.123375 31.372372
v 85.186348 0.826606 34.708084
v 85.186348 1.123371 34.708084
v 74.266800 0.826605 34.708084
v 74.266800 1.123370 34.708084
v 90.559563 1.113793 38.815525
v 90.559563 0.817412 38.815525
v 90.559563 0.817412 39.004635
v 90.559563 1.113793 39.004635
v 90.559563 0.817412 35.861378
v 90.559563 0.817412 35.961727
v 90.559563 1.123372 35.861378
v 90.559563 1.123372 35.961727
v 90.559563 0.817412 36.055569
v 90.559563 1.123372 36.055569
v 90.559563 0.817412 38.721291
v 90.559563 1.113793 38.721291
v 90.559563 2.062037 36.055569
v 74.266800 0.826608 28.569458
v 74.266800 1.123373 28.569458
v 82.739655 7.703871 38.974831
v 82.739655 2.110121 38.974827
v 82.554886 2.063995 38.974831
v 82.554886 7.703871 38.974831
v 83.935989 7.703871 38.974827
v 83.935989 2.063995 38.974827
v 83.109184 2.063995 38.974827
v 83.109184 7.703871 38.974827
v 74.266800 2.063993 38.974827
v 74.266800 7.703869 38.974827
v 82.554886 1.441252 38.974831
v 82.924416 2.110121 38.974827
v 82.924416 7.703871 38.974831
v 82.554886 1.422080 38.974827
v 74.266800 1.441251 38.974827
v 74.266800 1.422079 38.974827
v 83.935989 1.441252 38.974827
v 83.109184 1.441252 38.974827
v 83.935989 1.422080 38.974827
v 83.109184 1.422079 38.974827
v 74.266800 1.422073 46.744427
v 74.266800 1.441245 46.744427
v 74.266800 2.063988 46.744427
v 74.266800 7.703863 46.744427
v 84.209778 7.707331 38.974827
v 84.209778 1.740232 38.974827
v 84.170280 1.740232 38.974827
v 84.170273 7.707331 38.974827
v 85.208466 7.707331 38.974827
v 85.208466 1.740232 38.974827
v 84.876663 1.740232 38.974827
v 84.876663 7.707331 38.974827
v 83.934830 1.740232 38.974827
v 83.934822 7.707331 38.974827
v 84.844078 7.707331 38.974827
v 84.844078 1.740232 38.974827
v 84.616096 1.740232 38.974827
v 84.616096 7.707331 38.974827
v 84.430847 1.740232 38.974827
v 84.430847 7.707331 38.974827
v 84.170280 1.709300 38.974827
v 84.170280 1.441998 38.974827
v 83.934830 1.441998 38.974827
v 83.934830 1.709300 38.974827
v 84.170280 1.427848 38.974827
v 83.934830 1.427848 38.974827
v 85.208466 1.709300 38.974827
v 85.208466 1.441998 38.974827
v 84.876663 1.441998 38.974827
v 84.876663 1.709300 38.974827
v 85.208466 1.427848 38.974827
v 84.876663 1.427848 38.974827
v 89.571938 1.427846 42.802723
v 89.571938 1.427849 38.988552
v 89.571938 1.441996 42.802723
v 89.571938 1.709298 42.802723
v 89.571938 1.709301 38.988552
v 89.571938 1.441999 38.988552
v 89.571938 1.740230 42.802723
v 89.571930 7.707329 42.802723
v 89.571938 7.707332 38.988552
v 89.571938 1.740233 38.988552
v 90.567879 1.441999 38.988552
v 90.567879 1.427849 38.988552
v 90.567879 7.707332 38.988552
v 90.567879 1.740233 38.988552
v 90.567879 1.709301 38.988552
v 90.559586 7.707332 35.578972
v 90.559586 1.740233 35.578972
v 90.559586 1.740233 35.618473
v 90.559586 7.707332 35.618473
v 90.559586 7.707332 34.675621
v 90.559586 1.740233 34.675621
v 90.559586 1.740233 34.912083
v 90.559586 7.707332 34.912083
v 90.559586 1.740233 35.868950
v 90.559586 7.707332 35.868950
v 90.559586 7.707332 34.944672
v 90.559586 1.740233 34.944672
v 90.559586 1.740233 35.172649
v 90.559586 7.707332 35.172653
v 90.559586 1.740233 35.357903
v 90.559586 7.707332 35.357903
v 90.559586 1.709301 35.618473
v 90.559586 1.442000 35.618473
v 90.559586 1.442000 35.868950
v 90.559586 1.709301 35.868950
v 90.559586 1.427850 35.618473
v 90.559586 1.427850 35.868950
v 90.559586 1.709301 34.675621
v 90.559586 1.442000 34.675621
v 90.559586 1.442000 34.912083
v 90.559586 1.709301 34.912083
v 90.559586 1.427850 34.675621
v 90.559586 1.427850 34.912083
v 89.557327 1.427850 34.675621
v 89.557327 7.707332 34.675621
v 89.557327 1.740233 34.675621
v 89.557327 1.709301 34.675621
v 89.557327 1.442000 34.675621
v 89.557327 1.442003 31.372372
v 89.557327 1.427853 31.372372
v 89.557327 7.707335 31.372379
v 89.557327 1.740236 31.372372
v 89.557327 1.709304 31.372372
v 85.186348 7.707334 31.372379
v 85.186348 1.740235 31.372374
v 85.186348 1.441999 34.708084
v 85.186348 1.427849 34.708084
v 85.186348 7.707331 34.708084
v 85.186348 1.740232 34.708084
v 85.186348 1.709300 34.708084
v 74.266800 1.427848 34.708084
v 74.266800 1.709299 34.708084
v 74.266800 1.441998 34.708084
v 74.266800 7.707329 34.708084
v 74.266800 1.740231 34.708084
v 90.559563 2.465543 38.815525
v 90.559563 2.062036 38.815525
v 90.559563 2.062036 39.004635
v 90.559563 2.465543 39.004635
v 90.559563 1.429189 38.815525
v 90.559563 1.429189 39.004639
v 90.559563 1.410175 38.815525
v 90.559563 1.410175 39.004639
v 90.559563 2.678794 38.815525
v 90.559563 2.639810 39.004635
v 90.559563 7.707332 37.563137
v 90.559563 2.678794 37.725124
v 90.559563 2.678794 38.633553
v 90.559563 7.707332 38.633553
v 90.559563 7.707332 36.055569
v 90.559563 2.678794 36.055569
v 90.559563 2.678794 36.149406
v 90.559563 7.707332 36.149406
v 90.559563 7.707332 38.815525
v 90.559563 7.707332 39.004635
v 90.559563 2.678794 37.034698
v 90.559563 7.707332 37.196690
v 90.559563 7.707332 35.861382
v 90.559563 2.523390 35.861382
v 90.559563 2.678794 35.961727
v 90.559563 7.707332 35.961727
v 90.559563 2.465544 35.861382
v 90.559563 2.465544 35.961727
v 90.559563 1.410175 35.861378
v 90.559563 1.410175 35.961727
v 90.559563 1.429189 35.861378
v 90.559563 1.429189 35.961727
v 90.559563 2.062037 35.861382
v 90.559563 2.062037 35.961727
v 90.559563 1.410175 36.055569
v 90.559563 1.429189 36.055569
v 90.559563 2.678794 38.721291
v 90.559563 7.707332 38.721291
v 90.559563 1.410175 38.721291
v 90.559563 1.429189 38.721291
v 90.559563 2.062037 38.721291
v 85.208466 1.740229 42.578060
v 85.208466 7.707328 42.578060
v 74.266800 7.707332 28.569464
v 74.266800 1.740234 28.569458
v 74.266800 1.427851 28.569458
v 74.266800 1.709302 28.569458
v 74.266800 1.442001 28.569458
vt 0.062360 0.696838
vt 0.062360 0.683374
vt 0.099610 0.683374
vt 0.099610 0.696838
vt 0.124583 0.696838
vt 0.124583 0.683374
vt 0.497981 0.683374
vt 0.497981 0.696838
vt 0.317293 0.020657
vt 0.317293 0.006284
vt 0.690986 0.006284
vt 0.690986 0.020657
vt 0.005032 0.696844
vt 0.005032 0.683474
vt 0.019981 0.683474
vt 0.019981 0.696844
vt 0.051805 0.696844
vt 0.051805 0.683474
vt 0.062413 0.683474
vt 0.062413 0.696844
vt 0.991038 0.388218
vt 0.991038 0.394710
vt 0.907593 0.394710
vt 0.907593 0.388218
vt 0.706350 0.016577
vt 0.706350 0.030337
vt 0.752530 0.030337
vt 0.752530 0.016577
vt 0.813237 0.394710
vt 0.813237 0.388218
vt 0.818410 0.388218
vt 0.818410 0.394710
vt 0.833864 0.394710
vt 0.833864 0.388218
vt 0.839344 0.388218
vt 0.839344 0.394710
vt 0.752145 0.016577
vt 0.752145 0.030337
vt 0.705672 0.030337
vt 0.705672 0.016577
vt 0.813237 0.388218
vt 0.813237 0.394710
vt 0.740970 0.394710
vt 0.740970 0.388218
vt 0.498136 0.368597
vt 0.498136 0.381967
vt 0.006183 0.381967
vt 0.006183 0.368597
vt 0.903808 0.394501
vt 0.903808 0.388016
vt 0.907945 0.388016
vt 0.907945 0.394501
vt 0.839178 0.394710
vt 0.839178 0.388017
vt 0.841374 0.388017
vt 0.841374 0.394710
vt 0.843427 0.388017
vt 0.843427 0.394710
vt 0.901746 0.394501
vt 0.901746 0.388016
vt 0.307389 0.008344
vt 0.307389 0.022617
vt 0.012141 0.022617
vt 0.012141 0.008344
vt 0.116258 0.993312
vt 0.116258 0.741300
vt 0.124583 0.739221
vt 0.124583 0.993312
vt 0.062360 0.993312
vt 0.062360 0.739221
vt 0.099610 0.739221
vt 0.099610 0.993312
vt 0.497981 0.739221
vt 0.497981 0.993312
vt 0.107934 0.741300
vt 0.107934 0.993312
vt 0.124583 0.711165
vt 0.497981 0.711165
vt 0.124583 0.710302
vt 0.497981 0.710302
vt 0.062360 0.711165
vt 0.099610 0.711165
vt 0.062360 0.710302
vt 0.099610 0.710302
vt 0.317293 0.035953
vt 0.317293 0.035031
vt 0.690986 0.035031
vt 0.690986 0.035953
vt 0.317293 0.065905
vt 0.690986 0.065905
vt 0.317293 0.337165
vt 0.690986 0.337165
vt 0.050026 0.993468
vt 0.050026 0.724635
vt 0.051805 0.724635
vt 0.051805 0.993468
vt 0.005032 0.993468
vt 0.005032 0.724635
vt 0.019981 0.724635
vt 0.019981 0.993468
vt 0.062413 0.724635
vt 0.062413 0.993468
vt 0.021449 0.993468
vt 0.021449 0.724635
vt 0.031720 0.724635
vt 0.031720 0.993468
vt 0.040066 0.724635
vt 0.040066 0.993468
vt 0.051805 0.723242
vt 0.051805 0.711199
vt 0.062413 0.711199
vt 0.062413 0.723242
vt 0.051805 0.710562
vt 0.062413 0.710562
vt 0.005032 0.723242
vt 0.005032 0.711199
vt 0.019981 0.711199
vt 0.019981 0.723242
vt 0.870789 0.166082
vt 0.870786 0.166248
vt 0.867517 0.166198
vt 0.867517 0.166064
vt 0.005032 0.710562
vt 0.019981 0.710562
vt 0.991038 0.401371
vt 0.907593 0.401371
vt 0.991038 0.401681
vt 0.991038 0.407529
vt 0.907593 0.407529
vt 0.907593 0.401681
vt 0.991038 0.408206
vt 0.991038 0.538751
vt 0.907593 0.538751
vt 0.907593 0.408206
vt 0.706350 0.044455
vt 0.706350 0.045111
vt 0.752530 0.045111
vt 0.752530 0.044455
vt 0.706350 0.058940
vt 0.706350 0.335623
vt 0.752530 0.335623
vt 0.752530 0.058940
vt 0.706350 0.057506
vt 0.752530 0.057506
vt 0.833000 0.538751
vt 0.833000 0.408206
vt 0.833864 0.408206
vt 0.833864 0.538751
vt 0.813237 0.538751
vt 0.813237 0.408206
vt 0.818410 0.408206
vt 0.818410 0.538751
vt 0.839344 0.408206
vt 0.839344 0.538751
vt 0.819123 0.538751
vt 0.819123 0.408206
vt 0.824111 0.408206
vt 0.824111 0.538751
vt 0.828164 0.408206
vt 0.828164 0.538751
vt 0.833864 0.407529
vt 0.833864 0.401681
vt 0.839344 0.401681
vt 0.839344 0.407529
vt 0.833864 0.401371
vt 0.839344 0.401371
vt 0.813237 0.407529
vt 0.813237 0.401681
vt 0.818410 0.401681
vt 0.818410 0.407529
vt 0.813237 0.401371
vt 0.818410 0.401371
vt 0.752145 0.044455
vt 0.705672 0.044455
vt 0.752145 0.058940
vt 0.752145 0.335623
vt 0.705672 0.335623
vt 0.705672 0.058940
vt 0.752145 0.057506
vt 0.705672 0.057506
vt 0.752145 0.045111
vt 0.705672 0.045111
vt 0.813237 0.401371
vt 0.813237 0.401681
vt 0.740970 0.401681
vt 0.740970 0.401371
vt 0.813237 0.408206
vt 0.813237 0.538751
vt 0.740970 0.538751
vt 0.740970 0.408206
vt 0.813237 0.407529
vt 0.740970 0.407529
vt 0.987332 0.310901
vt 0.987332 0.378562
vt 0.949509 0.378562
vt 0.949509 0.310901
vt 0.498136 0.395684
vt 0.006183 0.395684
vt 0.498136 0.396322
vt 0.498136 0.408364
vt 0.006183 0.408364
vt 0.006183 0.396322
vt 0.498136 0.409758
vt 0.498136 0.678590
vt 0.006183 0.678590
vt 0.006183 0.409758
vt 0.903808 0.424074
vt 0.903808 0.415246
vt 0.907945 0.415246
vt 0.907945 0.424074
vt 0.903808 0.401401
vt 0.907945 0.401401
vt 0.903808 0.400985
vt 0.907945 0.400985
vt 0.903808 0.428739
vt 0.907945 0.427886
vt 0.876409 0.538751
vt 0.879953 0.428739
vt 0.899827 0.428739
vt 0.899827 0.538751
vt 0.843427 0.538751
vt 0.843427 0.428739
vt 0.845480 0.428739
vt 0.845480 0.538751
vt 0.903808 0.538751
vt 0.907945 0.538751
vt 0.864848 0.428739
vt 0.868392 0.538751
vt 0.839178 0.538751
vt 0.839178 0.425339
vt 0.841374 0.428739
vt 0.841374 0.538751
vt 0.839178 0.424074
vt 0.841374 0.424074
vt 0.839178 0.400985
vt 0.841374 0.400985
vt 0.839178 0.401401
vt 0.841374 0.401401
vt 0.839178 0.415246
vt 0.841374 0.415246
vt 0.843427 0.400985
vt 0.843427 0.401401
vt 0.843427 0.415246
vt 0.901746 0.428739
vt 0.901746 0.538751
vt 0.901746 0.400985
vt 0.901746 0.401401
vt 0.901746 0.415246
vt 0.945309 0.310901
vt 0.945309 0.378562
vt 0.904452 0.378562
vt 0.904452 0.310901
vt 0.307389 0.052286
vt 0.307389 0.339284
vt 0.012141 0.339284
vt 0.012141 0.052286
vt 0.307389 0.037262
vt 0.012141 0.037262
vt 0.307389 0.050799
vt 0.012141 0.050799
vt 0.307389 0.037942
vt 0.012141 0.037942
vn 0.0000 0.0000 -1.0000
vn -1.0000 0.0000 0.0000
vn 0.0000 0.0000 1.0000
vn 1.0000 -0.0000 0.0000
usemtl Material.002
s 1
f 3/1/1 4/2/1 2/3/1 1/4/1
f 5/5/1 6/6/1 7/7/1 8/8/1
f 8/9/2 7/10/2 9/11/2 10/12/2
f 11/13/1 12/14/1 13/15/1 14/16/1
f 15/17/1 16/18/1 17/19/1 18/20/1
f 19/21/2 20/22/2 21/23/2 22/24/2
f 22/25/1 21/26/1 24/27/1 23/28/1
f 25/29/2 26/30/2 27/31/2 28/32/2
f 29/33/2 30/34/2 31/35/2 32/36/2
f 26/37/3 25/38/3 33/39/3 34/40/3
f 34/41/2 33/42/2 36/43/2 35/44/2
f 37/45/3 38/46/3 40/47/3 39/48/3
f 41/49/2 42/50/2 43/51/2 44/52/2
f 47/53/2 45/54/2 46/55/2 48/56/2
f 48/56/2 46/55/2 49/57/2 50/58/2
f 52/59/2 51/60/2 42/50/2 41/49/2
f 39/61/2 40/62/2 55/63/2 54/64/2
f 56/65/1 57/66/1 58/67/1 59/68/1
f 60/69/1 61/70/1 62/71/1 63/72/1
f 59/68/1 58/67/1 64/73/1 65/74/1
f 63/72/1 62/71/1 67/75/1 68/76/1
f 68/76/1 67/75/1 57/66/1 56/65/1
f 58/67/1 66/77/1 70/78/1 64/73/1
f 66/77/1 69/79/1 71/80/1 70/78/1
f 61/70/1 72/81/1 73/82/1 62/71/1
f 72/81/1 74/83/1 75/84/1 73/82/1
f 69/79/1 5/5/1 8/8/1 71/80/1
f 74/83/1 3/1/1 1/4/1 75/84/1
f 70/85/2 71/86/2 76/87/2 77/88/2
f 71/86/2 8/9/2 10/12/2 76/87/2
f 64/89/2 70/85/2 77/88/2 78/90/2
f 65/91/2 64/89/2 78/90/2 79/92/2
f 80/93/1 81/94/1 82/95/1 83/96/1
f 84/97/1 85/98/1 86/99/1 87/100/1
f 83/96/1 82/95/1 88/101/1 89/102/1
f 90/103/1 91/104/1 92/105/1 93/106/1
f 93/106/1 92/105/1 94/107/1 95/108/1
f 96/109/1 97/110/1 98/111/1 99/112/1
f 97/110/1 100/113/1 101/114/1 98/111/1
f 102/115/1 103/116/1 104/117/1 105/118/1
f 103/119/1 106/120/1 107/121/1 104/122/1
f 100/113/1 15/17/1 18/20/1 101/114/1
f 106/123/1 11/13/1 14/16/1 107/124/1
f 85/98/1 102/115/1 105/118/1 86/99/1
f 82/95/1 96/109/1 99/112/1 88/101/1
f 87/100/1 86/99/1 91/104/1 90/103/1
f 95/108/1 94/107/1 81/94/1 80/93/1
f 20/22/2 108/125/2 109/126/2 21/23/2
f 110/127/2 111/128/2 112/129/2 113/130/2
f 108/125/2 110/127/2 113/130/2 109/126/2
f 114/131/2 115/132/2 116/133/2 117/134/2
f 111/128/2 114/131/2 117/134/2 112/129/2
f 109/135/1 113/136/1 118/137/1 119/138/1
f 117/139/1 116/140/1 120/141/1 121/142/1
f 112/143/1 117/139/1 121/142/1 122/144/1
f 21/26/1 109/135/1 119/138/1 24/27/1
f 113/136/1 112/143/1 122/144/1 118/137/1
f 123/145/2 124/146/2 125/147/2 126/148/2
f 127/149/2 128/150/2 129/151/2 130/152/2
f 126/148/2 125/147/2 131/153/2 132/154/2
f 133/155/2 134/156/2 135/157/2 136/158/2
f 136/158/2 135/157/2 137/159/2 138/160/2
f 139/161/2 140/162/2 141/163/2 142/164/2
f 140/162/2 143/165/2 144/166/2 141/163/2
f 145/167/2 146/168/2 147/169/2 148/170/2
f 146/168/2 149/171/2 150/172/2 147/169/2
f 143/165/2 29/33/2 32/36/2 144/166/2
f 149/171/2 25/29/2 28/32/2 150/172/2
f 128/150/2 145/167/2 148/170/2 129/151/2
f 125/147/2 139/161/2 142/164/2 131/153/2
f 130/152/2 129/151/2 134/156/2 133/155/2
f 138/160/2 137/159/2 124/146/2 123/145/2
f 25/38/3 149/173/3 151/174/3 33/39/3
f 128/175/3 127/176/3 152/177/3 153/178/3
f 145/179/3 128/175/3 153/178/3 154/180/3
f 146/181/3 145/179/3 154/180/3 155/182/3
f 149/173/3 146/181/3 155/182/3 151/174/3
f 151/183/2 155/184/2 156/185/2 157/186/2
f 153/187/2 152/188/2 158/189/2 159/190/2
f 154/191/2 153/187/2 159/190/2 160/192/2
f 33/42/2 151/183/2 157/186/2 36/43/2
f 155/184/2 154/191/2 160/192/2 156/185/2
f 162/193/4 161/194/4 165/195/4 166/196/4
f 38/46/3 164/197/3 168/198/3 40/47/3
f 163/199/3 167/200/3 169/201/3 170/202/3
f 164/197/3 163/199/3 170/202/3 168/198/3
f 166/203/3 165/204/3 171/205/3 172/206/3
f 167/200/3 166/203/3 172/206/3 169/201/3
f 173/207/2 174/208/2 175/209/2 176/210/2
f 174/208/2 177/211/2 178/212/2 175/209/2
f 177/211/2 179/213/2 180/214/2 178/212/2
f 179/213/2 41/49/2 44/52/2 180/214/2
f 181/215/2 173/207/2 176/210/2 182/216/2
f 183/217/2 184/218/2 185/219/2 186/220/2
f 187/221/2 188/222/2 189/223/2 190/224/2
f 191/225/2 181/215/2 182/216/2 192/226/2
f 190/224/2 189/223/2 193/227/2 194/228/2
f 194/228/2 193/227/2 184/218/2 183/217/2
f 195/229/2 196/230/2 197/231/2 198/232/2
f 196/230/2 199/233/2 200/234/2 197/231/2
f 201/235/2 47/53/2 48/56/2 202/236/2
f 203/237/2 201/235/2 202/236/2 204/238/2
f 205/239/2 203/237/2 204/238/2 206/240/2
f 199/233/2 205/239/2 206/240/2 200/234/2
f 198/232/2 197/231/2 188/222/2 187/221/2
f 202/236/2 48/56/2 50/58/2 207/241/2
f 206/240/2 204/238/2 208/242/2 53/243/2
f 186/220/2 185/219/2 209/244/2 210/245/2
f 210/245/2 209/244/2 181/215/2 191/225/2
f 211/246/2 52/59/2 41/49/2 179/213/2
f 212/247/2 211/246/2 179/213/2 177/211/2
f 213/248/2 212/247/2 177/211/2 174/208/2
f 85/249/4 84/250/4 215/251/4 214/252/4
f 172/253/2 171/254/2 216/255/2 217/256/2
f 40/62/2 168/257/2 218/258/2 55/63/2
f 169/259/2 172/253/2 217/256/2 219/260/2
f 170/261/2 169/259/2 219/260/2 220/262/2
f 168/257/2 170/261/2 220/262/2 218/258/2
