# Blender v2.80 (sub 75) OBJ File: ''
# www.blender.org
mtllib BallroomWalls.mtl
o Plane.000_Plane.020
v 42.000000 3.298042 -3.909104
v 42.000000 3.298042 -5.999996
v 42.000000 14.000007 -5.999987
v 42.000000 14.000008 -3.914993
v 41.905472 3.287266 -5.999996
v 41.905472 5.980333 -5.999995
v 49.762287 3.298038 10.000007
v 49.762287 13.999987 10.000011
v 54.985317 13.999987 10.000013
v 56.869392 3.186492 10.000007
v 65.000000 0.631592 10.000001
v 58.991325 0.602329 10.000003
v 58.991325 3.190984 10.000007
v 65.001732 5.011490 10.000006
v 58.991325 13.999987 10.000013
v 42.000000 3.298041 3.109667
v 49.762287 0.602329 10.000003
v 42.000000 0.602331 3.109664
v 42.000000 14.000005 3.109677
v 67.000000 0.010512 10.000003
v 65.005280 0.010512 10.000003
v 67.000000 0.602329 10.000003
v 42.000000 0.602332 -3.909104
v 56.869392 0.602329 10.000003
v 42.000000 0.602332 -5.999996
v 42.000000 0.602333 -12.000002
v 42.000000 3.298043 -11.999998
v 67.000000 4.991815 10.000007
v 42.000000 14.000010 -11.999990
v 41.999992 0.607036 -14.000000
v 41.999992 5.000013 -13.999994
v 41.999992 14.000010 -13.999989
v 42.000000 14.000021 -24.999989
v 42.000000 14.000015 -17.991762
v 42.000000 4.993114 -17.995888
v 42.000000 4.972408 -24.999998
v 72.000000 4.999994 10.000009
v 67.000000 13.999989 10.000013
v 72.000000 13.999989 10.000013
v 77.000000 4.972373 10.000004
v 72.000000 4.972373 10.000007
v 77.000000 13.999989 10.000010
v 77.000000 4.972408 -24.999998
v 77.000000 14.000021 -24.999989
v 72.000000 -0.000012 10.000003
v 77.000000 0.000024 -25.000000
v 77.000000 -0.000012 9.999999
v 42.000000 0.000024 -25.000000
v 42.000000 0.000018 -18.000000
v 41.999992 0.000012 -14.000000
v 42.000000 0.000012 -12.000002
v 65.005280 13.999989 10.000013
vt 0.652972 0.100943
vt 0.687399 0.100943
vt 0.687399 0.277151
vt 0.653069 0.277151
vt 0.725250 0.288306
vt 0.725427 0.286750
vt 0.769591 0.288306
vt 0.366512 0.100943
vt 0.366512 0.277151
vt 0.280515 0.277151
vt 0.249494 0.099106
vt 0.115623 0.057040
vt 0.214556 0.056558
vt 0.214556 0.099180
vt 0.115594 0.129155
vt 0.214556 0.277151
vt 0.537408 0.100943
vt 0.366512 0.056558
vt 0.537408 0.056558
vt 0.537408 0.277151
vt 0.082693 0.046814
vt 0.115536 0.046814
vt 0.082693 0.056558
vt 0.652972 0.056558
vt 0.249494 0.056558
vt 0.687399 0.056558
vt 0.786189 0.056558
vt 0.786189 0.100943
vt 0.082693 0.128831
vt 0.786189 0.277151
vt 0.819119 0.056635
vt 0.819119 0.128966
vt 0.819119 0.277151
vt 1.000234 0.277151
vt 0.884844 0.277151
vt 0.884912 0.128852
vt 1.000234 0.128511
vt 0.082693 0.277151
vt 0.000367 0.277151
vt 0.000368 0.128966
vt 0.918364 0.277284
vt 0.918364 0.359609
vt 0.769724 0.359609
vt 0.769724 0.277284
vt 0.498473 0.800208
vt 0.498473 0.924505
vt 0.016575 0.924505
vt 0.016575 0.800208
vt 0.980372 0.800208
vt 0.980372 0.924505
vt 0.498473 0.731745
vt 0.980372 0.731745
vt 0.016575 0.731745
vt 1.000234 0.277284
vt 1.000234 0.359609
vt 0.884979 0.046641
vt 1.000234 0.046641
vt 0.819119 0.046641
vt 0.786189 0.046641
vt 0.115536 0.277151
vn 1.0000 0.0000 0.0000
vn 0.0000 -0.0000 1.0000
vn 0.0000 0.0000 -1.0000
vn 0.6639 0.0000 -0.7479
vn -1.0000 -0.0000 0.0000
usemtl None.002
s off
f 1/1/1 2/2/1 3/3/1 4/4/1
f 5/5/2 2/6/2 6/7/2
s 1
f 7/8/3 8/9/3 9/10/3 10/11/3
f 11/12/3 12/13/3 13/14/3 14/15/3
f 13/14/3 10/11/3 9/10/3 15/16/3
f 16/17/4 7/8/4 17/18/4 18/19/4
f 1/1/1 4/4/1 19/20/1 16/17/1
f 20/21/3 21/22/3 11/12/3 22/23/3
f 7/8/4 16/17/4 19/20/4 8/9/4
f 23/24/1 1/1/1 16/17/1 18/19/1
f 24/25/3 17/18/3 7/8/3 10/11/3
f 25/26/1 26/27/1 27/28/1 2/2/1
f 14/15/3 28/29/3 22/23/3 11/12/3
f 2/2/1 27/28/1 29/30/1 3/3/1
f 30/31/1 31/32/1 27/28/1 26/27/1
f 27/28/1 31/32/1 32/33/1 29/30/1
f 33/34/1 34/35/1 35/36/1 36/37/1
f 28/29/3 38/38/3 39/39/3 37/40/3
f 40/41/3 41/42/3 39/43/3 42/44/3
f 43/45/2 44/46/2 33/47/2 36/48/2
f 43/45/5 40/49/5 42/50/5 44/46/5
f 46/51/5 47/52/5 40/49/5 43/45/5
f 46/51/2 43/45/2 36/48/2 48/53/2
f 47/54/3 45/55/3 41/42/3 40/41/3
f 32/33/1 31/32/1 35/36/1 34/35/1
f 49/56/1 48/57/1 36/37/1 35/36/1
f 50/58/1 30/31/1 26/27/1 51/59/1
f 52/60/3 38/38/3 28/29/3 14/15/3
f 14/15/3 13/14/3 15/16/3 52/60/3
