# Blender v2.82 (sub 7) OBJ File: ''
# www.blender.org
mtllib BlackDoorFrames.mtl
o Plane.000_Plane.004
v 65.164139 2.292480 17.558365
v 65.164139 0.999961 21.000004
v 65.164139 -0.000039 18.938604
v 65.164139 0.999961 18.938604
v 65.164139 2.292479 18.938604
v 65.000000 2.292479 18.938604
v 65.000000 2.292480 17.558365
v 65.164139 -0.000069 33.282978
v 65.164139 2.292459 33.282978
v 65.164139 2.292461 32.116180
v 65.164139 2.292461 30.000000
v 65.000000 -0.000065 32.116180
v 65.164139 -0.000065 32.116180
v 65.164139 0.999935 32.116180
v 65.000000 0.999935 32.116180
v 65.000000 -0.000039 18.938604
v 65.000000 0.999961 18.938604
v 65.164139 2.292480 21.000004
v 65.000000 2.292461 32.116180
v 65.164139 0.999935 30.000000
v 65.000000 0.999935 30.000000
v 65.000000 2.292461 30.000000
v 65.000000 0.999961 21.000004
v 65.000000 2.292480 21.000004
v 65.164139 -0.000039 17.558365
v 65.000000 -0.000039 17.558365
v 65.000000 2.292459 33.282974
v 65.000000 -0.000069 33.282974
vt 0.099853 0.228052
vt 0.099853 0.284731
vt 0.093112 0.284731
vt 0.093112 0.228052
vt 0.106663 0.370112
vt 0.099923 0.370112
vt 0.099922 0.329047
vt 0.106663 0.329047
vt 0.099853 0.378874
vt 0.093112 0.378874
vt 0.093113 0.337808
vt 0.099853 0.337808
vt 0.099922 0.275970
vt 0.106662 0.275969
vt 0.410721 0.125074
vt 0.413129 0.065833
vt 0.421505 0.057640
vt 0.421505 0.133842
vt 0.075475 0.058311
vt 0.082315 0.064720
vt 0.070030 0.127237
vt 0.080299 0.120671
vt 0.099853 0.133911
vt 0.093112 0.133911
vt 0.106662 0.228055
vt 0.099921 0.228055
vt 0.099923 0.133911
vt 0.106663 0.133911
vn 0.0000 -0.7071 0.7071
vn 0.0000 -0.7071 -0.7071
vn 0.0000 0.0000 1.0000
vn 0.0000 0.0000 -1.0000
vn 0.0000 1.0000 0.0000
vn 0.0000 -1.0000 -0.0000
usemtl None.009
s 1
f 1/1/1 5/2/2 6/3/2 7/4/1
f 12/5/3 13/6/3 14/7/3 15/8/3
f 3/9/4 16/10/4 17/11/4 4/12/4
f 15/8/3 14/7/3 10/13/1 19/14/1
f 4/12/4 17/11/4 6/3/2 5/2/2
f 11/15/4 20/16/4 21/17/4 22/18/4
f 23/19/5 21/17/5 20/16/5 2/20/5
f 11/15/6 22/18/6 24/21/6 18/22/6
f 18/22/3 24/21/3 23/19/3 2/20/3
f 25/23/3 1/1/1 7/4/1 26/24/3
f 27/25/2 9/26/2 8/27/4 28/28/4
f 19/14/1 10/13/1 9/26/2 27/25/2
