# Blender v2.80 (sub 75) OBJ File: 'curatsjs.blend'
# www.blender.org
mtllib Map3StageWalls.mtl
o Plane.000_Plane.020
v 42.000000 14.000008 -11.999991
v 67.000000 0.010514 10.000003
v 67.000000 13.999990 10.000011
v 42.000000 3.298041 -5.999996
v 49.762287 13.999989 10.000010
v 42.000000 14.000006 -5.999989
v 42.000000 14.000006 3.109675
v 56.869392 0.602331 10.000003
v 58.991325 0.602331 10.000003
v 65.000000 0.631594 10.000001
v 65.005280 0.010514 10.000003
v 58.991325 13.999989 10.000011
v 58.991325 3.190986 10.000006
v 54.985317 13.999989 10.000011
v 56.869392 3.186494 10.000006
v 42.000000 0.602331 -12.000002
v 49.762287 0.602331 10.000003
v 42.000000 0.602331 -5.999996
v 67.000000 0.602331 10.000003
v 42.000000 0.602331 3.109664
v 42.000000 0.602331 -3.909104
v 42.000000 14.000007 -3.914995
v 65.005280 13.999990 10.000011
v 49.762287 3.298040 10.000006
v 42.000000 3.298041 3.109666
v 42.000000 3.298041 -3.909104
v 42.000000 3.298041 -11.999999
v 41.905472 5.980332 -5.999996
v 41.905472 3.287265 -5.999996
vt 0.503305 1.000000
vt 0.503305 1.000000
vt 0.503305 1.000000
vt 0.503305 1.000000
vt 0.503305 1.000000
vt 0.503305 1.000000
vt 0.503305 1.000000
vt 0.503305 1.000000
vt 0.503305 1.000000
vt 0.000000 0.208552
vt 0.215092 0.000000
vt 0.215092 0.000000
vt 0.000000 0.208552
vt 0.000000 0.316693
vt 0.000000 0.316693
vt 0.000000 0.316693
vt 0.000000 0.316693
vt 0.503305 1.000000
vt 0.503305 1.000000
vt 0.503305 1.000000
vt 0.000000 0.208552
vt 0.215092 0.000000
vt 0.000000 0.316693
vt 0.000000 0.316693
vt 0.503305 1.000000
vt 0.503305 1.000000
vt 0.000000 0.316693
vt 0.000000 0.316693
vt 0.000000 0.316693
vt 0.000000 0.316693
vt 0.503305 1.000000
vt 0.000000 0.316693
vt 0.000000 0.316693
vt 0.000000 0.000000
vt 0.987023 0.127809
vt 0.990526 0.166913
vt 0.987023 0.166913
vn 0.0000 0.0000 -1.0000
vn 0.6639 0.0000 -0.7479
vn 1.0000 0.0000 0.0000
vn 0.0000 0.0000 1.0000
usemtl None.000
s 1
f 24/1/1 5/2/1 14/3/1 15/4/1
f 10/5/1 9/6/1 13/7/1 12/8/1 23/9/1
f 13/7/1 15/4/1 14/3/1 12/8/1
f 25/10/2 24/11/2 17/12/2 20/13/2
f 26/14/3 22/15/3 7/16/3 25/17/3
f 2/18/1 11/19/1 10/5/1 19/20/1
f 24/11/2 25/10/2 7/21/2 5/22/2
f 21/23/3 26/14/3 25/17/3 20/24/3
f 8/25/1 17/26/1 24/1/1 15/4/1
f 18/27/3 16/28/3 27/29/3 4/30/3
f 23/9/1 3/31/1 19/20/1 10/5/1
f 4/30/3 27/29/3 1/32/3 6/33/3
usemtl None.001
s off
f 26/34/3 4/30/3 6/33/3 22/15/3
f 29/35/4 4/36/4 28/37/4
