# Blender v2.82 (sub 7) OBJ File: ''
# www.blender.org
mtllib Map3MainWalls.mtl
o Plane.000
v 41.905472 0.594202 -3.909104
v 35.000000 0.000005 -3.909104
v 35.000000 2.500005 -3.909104
v 41.905472 3.287270 -3.909104
v 34.999996 0.000014 -5.999996
v 41.905472 0.594202 -5.999996
v 41.905472 3.287270 -5.999996
v 35.000000 2.500014 -5.999996
v 42.000000 0.602336 -5.999996
v 42.000000 3.298046 -5.999996
v 42.000000 0.602336 -3.909104
v 42.000000 3.298046 -3.909104
v 59.000000 2.409065 17.000000
v 56.884075 2.409065 17.000000
v 56.869392 3.186484 10.000010
v 58.991325 3.190976 10.000010
v 59.000000 4.999958 17.000000
v 56.884075 4.999958 17.000000
v 34.999996 5.000000 -3.909099
v 35.000000 5.000014 -5.999991
v 45.939278 -0.000027 17.000000
v 48.000000 -0.000042 17.000000
v 48.000000 2.499958 17.000000
v 45.939278 1.222804 17.000000
v 45.939278 2.878533 17.000000
v 35.000000 2.878533 17.000000
v 37.060726 1.222804 17.000000
v 37.060726 2.878533 17.000000
v 35.000000 -0.000027 17.000000
v 37.060726 -0.000027 17.000000
v 35.000000 4.999973 17.000000
v 24.999996 0.000028 -12.000000
v 14.999996 0.000028 -12.000000
v 14.999996 5.000028 -11.999990
v 24.999996 5.000028 -11.999990
v 41.800781 2.538477 -20.000000
v 41.800781 0.000042 -20.000000
v 41.800781 0.000042 -18.000000
v 41.800781 2.538476 -18.000000
v 24.999996 0.000000 -3.000000
v 24.999996 5.000000 -2.999986
v 34.999996 2.500028 -11.999996
v 34.999996 5.000028 -11.999990
v 65.000000 5.010169 18.938604
v 65.000000 2.292476 18.938604
v 65.000000 2.292477 21.000004
v 65.000000 4.999955 21.000004
v 59.000000 -0.000042 17.000000
v 65.000000 -0.000042 17.000000
v 65.000000 2.318172 17.000000
v 65.000000 0.999930 30.000000
v 65.000000 -0.000070 30.000000
v 65.000000 -0.000070 32.116180
v 65.000000 0.999930 32.116180
v 65.000000 2.292477 17.558365
v 65.000000 -0.000042 17.558365
v 65.000000 4.999930 30.000000
v 65.000000 2.292456 30.000000
v 65.000000 2.292456 32.116180
v 65.000000 4.999930 31.865837
v 65.000000 0.999958 18.938604
v 65.000000 0.999958 21.000004
v 65.000000 -0.000042 18.938604
v 65.000000 -0.000042 21.000004
v 9.000000 0.000000 -3.000000
v 9.000000 5.000000 -2.999986
v 24.999996 -0.000014 4.000001
v 9.000000 -0.000014 4.000001
v 9.000000 5.000000 4.000015
v 25.000000 5.000000 4.000015
v 50.336208 -0.000084 36.000000
v 50.336212 -0.000084 34.000000
v 50.336208 2.243634 34.000004
v 50.336208 2.243625 36.000000
v 9.000000 0.000014 -9.000000
v 9.000000 5.000016 -8.999990
v 9.129444 -0.000028 13.000001
v 9.129444 4.999972 13.000010
v 17.249996 2.242821 34.000004
v 17.249996 5.151620 34.000004
v 27.738310 5.151620 34.000004
v 27.738310 2.242821 34.000004
v 15.999996 -0.000042 17.000000
v 24.999996 -0.000042 17.000000
v 24.999996 4.999958 17.000000
v 15.999996 4.999958 17.000000
v 29.836967 2.242821 34.000004
v 29.836967 2.243625 36.000000
v 27.738310 2.242810 36.000000
v -3.192828 2.242854 11.637520
v -3.192829 -0.000028 11.637517
v -3.919380 -0.000028 11.102958
v -3.919379 2.242854 11.102960
v -4.596416 -0.000028 10.383359
v -4.596416 2.242855 10.383360
v -5.177795 -0.000028 9.527753
v -5.177794 2.242854 9.527754
v -5.623909 -0.000014 8.594449
v -5.623908 2.242862 8.594450
v -5.904350 -0.000014 7.647052
v -5.904349 2.242866 7.647053
v -6.000000 -0.000014 6.750127
v -5.999999 2.242865 6.750128
v 15.700771 -0.000042 16.825794
v 15.700771 4.999958 16.825794
v 12.695137 2.242844 20.825794
v 13.000000 2.242844 21.000004
v 13.000000 -0.000042 21.000004
v 12.695137 -0.000042 20.825794
v 12.695137 5.325865 20.825794
v 13.000000 5.151657 21.000004
v -6.000000 -0.000014 6.000000
v -5.999999 2.242866 6.000002
v -5.904350 9.151691 7.647070
v -6.000000 9.151691 6.750145
v -5.623909 9.151691 8.594473
v -5.177795 9.151676 9.527779
v -4.596416 9.151676 10.383383
v -3.919380 9.151676 11.102985
v -3.192829 9.151676 11.637547
v 13.000000 -0.000070 30.621288
v 13.000000 2.242821 30.621288
v 15.504238 -0.000084 33.884876
v 15.504238 2.242821 33.884876
v 16.378708 2.242821 34.000004
v 16.378708 -0.000084 34.000004
v 14.689354 -0.000070 33.547337
v 14.689354 2.242821 33.547337
v 13.989601 -0.000070 33.010399
v 13.989601 2.242821 33.010399
v 13.452660 -0.000070 32.310646
v 13.452660 2.242822 32.310646
v 13.115120 -0.000070 31.495766
v 13.115120 2.242821 31.495766
v 27.738310 -0.000084 36.000000
v 27.738310 -0.000084 34.000004
v 5.999996 -0.000042 17.000000
v 5.999996 2.242843 17.000002
v 17.249996 -0.000084 34.000004
v -6.000000 -0.000000 2.319818
v -5.999999 2.242877 2.319821
v 29.836967 -0.000084 34.000004
v 29.836967 -0.000084 36.000000
v 29.836967 -0.000070 28.000000
v 29.836967 2.242822 28.000000
v 29.836967 5.151620 34.000004
v 52.421593 -0.000084 34.000004
v 52.421593 -0.000084 36.000000
v 52.421593 2.248993 36.000000
v 52.421593 2.243634 34.000004
v 68.437866 -0.000084 36.000000
v 68.437866 -0.000084 34.000004
v 68.437866 2.249002 34.000004
v 68.437866 2.248993 36.000000
v 48.000000 -0.000070 32.417400
v 48.000000 -0.000070 28.000000
v 48.000000 2.269531 28.000000
v 48.000000 2.269528 32.417400
v 49.172993 -0.000084 33.946075
v 49.172993 2.269525 33.946075
v 49.582603 2.269525 34.000000
v 49.582603 -0.000084 34.000000
v 48.791302 -0.000084 33.787971
v 48.791302 2.269525 33.787971
v 48.463531 -0.000070 33.536465
v 48.463531 2.269526 33.536465
v 48.212029 -0.000070 33.208694
v 48.212029 2.269526 33.208694
v 48.053925 -0.000070 32.827007
v 48.053925 2.269528 32.827007
v 65.000000 -0.000084 34.000000
v 65.000000 2.292454 34.000000
v 70.534828 -0.000084 34.000004
v 70.534828 -0.000084 36.000000
v 70.534828 2.248993 36.000000
v 70.534828 2.249002 34.000004
v 65.000000 4.999928 33.274384
v 65.000000 2.292454 33.282974
v 65.000000 5.151620 34.000000
v 65.000000 -0.000074 33.282974
v 56.884075 -0.000042 17.000000
v 34.999996 0.000028 -12.000000
v 41.800774 0.000028 -14.000000
v 41.800774 0.000028 -12.000000
v 41.800774 2.500028 -11.999996
v 41.800774 2.500029 -13.999996
v 56.869392 0.602321 10.000003
v 58.991325 0.602321 10.000003
v 14.999996 0.000042 -20.000000
v 14.999996 2.538477 -20.000000
v 9.000000 0.000042 -17.000000
v 9.000000 2.538476 -16.999994
v -3.055023 0.000028 -10.581120
v -3.055023 2.538468 -10.581115
v -6.000000 0.000000 -1.479732
v -6.000000 0.000014 -5.206796
v -6.000001 2.538460 -5.206790
v -6.000001 2.538452 -1.479727
v -6.000000 0.000014 -5.956922
v -6.000001 2.538460 -5.956916
v -3.817238 2.538468 -10.114677
v -3.817238 0.000028 -10.114682
v -4.527515 2.538466 -9.458551
v -4.527515 0.000028 -9.458557
v -5.137436 2.538461 -8.657455
v -5.137436 0.000014 -8.657460
v -5.605453 2.538460 -7.765981
v -5.605453 0.000014 -7.765984
v -5.899659 2.538460 -6.844875
v -5.899658 0.000014 -6.844880
v 41.800781 5.151748 -20.000000
v 41.800781 5.000042 -18.000000
v 14.999996 5.151748 -20.000000
v 9.000000 9.151743 -16.999973
v -3.055023 9.151730 -10.581093
v -6.000000 9.151714 -5.206778
v -6.000000 9.151703 -1.479708
v -6.000000 9.151714 -5.956905
v -3.817238 9.151730 -10.114655
v -4.527515 9.151730 -9.458529
v -5.137436 9.151714 -8.657433
v -5.605453 9.151714 -7.765967
v -5.899658 9.151714 -6.844862
v 48.000000 4.999958 17.000000
v 45.939278 4.999973 17.000000
v 37.060726 4.999973 17.000000
v 65.000000 4.999958 17.558365
v 65.000000 4.999958 17.000000
v 5.999996 9.151663 17.000027
v -6.000000 9.151703 2.319840
v -6.000000 9.151691 6.000016
v 16.378708 5.151620 34.000004
v 29.836967 5.151633 28.000000
v 13.000000 5.151633 30.621288
v 13.115120 5.151633 31.495766
v 13.452660 5.151633 32.310646
v 13.989601 5.151633 33.010399
v 14.689354 5.151633 33.547337
v 15.504238 5.151620 33.884876
v 49.582603 5.151620 34.000000
v 50.000000 5.151620 34.000000
v 53.000000 5.151620 34.000004
v 48.000000 5.151633 32.417400
v 48.053925 5.151633 32.827007
v 48.212029 5.151633 33.208694
v 48.463531 5.151633 33.536465
v 48.791302 5.151620 33.787971
v 49.172993 5.151620 33.946075
v 48.000000 5.151633 28.000000
v 41.800774 5.000028 -11.999990
v 41.800774 5.000031 -13.999990
v -6.000000 9.151705 -1.301454
v -6.000001 3.871212 -1.301467
v -6.000000 9.151702 -0.785366
v -6.000001 4.369766 -0.785373
v -6.000000 9.151705 -0.154657
v -6.000001 4.794639 -0.154661
v -6.000000 9.151705 0.994772
v -5.999999 4.499064 0.994769
v -6.000000 9.151703 2.141578
v -5.999999 3.575637 2.141564
v -6.000000 9.151707 1.625485
v -5.999999 4.074191 1.625476
vt 0.629715 0.453797
vt 0.557728 0.451804
vt 0.560671 0.425995
vt 0.632884 0.425995
vt 0.557728 0.378463
vt 0.629715 0.376470
vt 0.632884 0.404271
vt 0.560671 0.404271
vt 0.782980 0.461906
vt 0.782226 0.461927
vt 0.779799 0.440635
vt 0.780555 0.440635
vt 0.782226 0.402720
vt 0.782980 0.402741
vt 0.780555 0.424012
vt 0.779799 0.424012
vt 0.706134 0.403179
vt 0.706114 0.425163
vt 0.632936 0.425248
vt 0.632951 0.403201
vt 0.088517 0.314174
vt 0.088517 0.275962
vt 0.119723 0.275962
vt 0.119723 0.314174
vt 0.750849 0.275963
vt 0.781686 0.275963
vt 0.781686 0.312833
vt 0.750849 0.312833
vt 0.281141 0.349704
vt 0.250749 0.349704
vt 0.250749 0.312833
vt 0.281141 0.331669
vt 0.281141 0.307250
vt 0.442476 0.307250
vt 0.412084 0.331669
vt 0.412084 0.307250
vt 0.442476 0.349704
vt 0.412084 0.349704
vt 0.442476 0.275963
vt -0.004375 0.172266
vt 0.205219 0.172266
vt 0.205219 0.246743
vt -0.004375 0.246743
vt 0.948855 0.714614
vt 0.948855 0.675394
vt 0.979756 0.675394
vt 0.979756 0.714614
vt 0.806926 0.172266
vt 0.995560 0.172266
vt 0.995560 0.246743
vt 0.806926 0.246743
vt 0.870176 0.312833
vt 0.870176 0.275962
vt 0.058120 0.524065
vt 0.058120 0.468174
vt 0.100515 0.468174
vt 0.100515 0.523855
vt 0.088517 0.349704
vt 0.000027 0.349704
vt 0.000027 0.315514
vt 0.285608 0.441591
vt 0.285608 0.421025
vt 0.329129 0.421025
vt 0.329129 0.441591
vt 0.029734 0.468174
vt 0.018251 0.468702
vt 0.018251 0.421026
vt 0.029734 0.421026
vt 0.285608 0.523855
vt 0.285608 0.468173
vt 0.329129 0.468173
vt 0.323980 0.523855
vt 0.058120 0.441592
vt 0.100515 0.441592
vt 0.058120 0.421026
vt 0.100515 0.421026
vt 0.471575 0.172266
vt 0.471575 0.246743
vt 0.232183 0.005840
vt 0.523333 0.005840
vt 0.523333 0.084718
vt 0.232183 0.084718
vt 0.653809 0.451982
vt 0.674589 0.452001
vt 0.674568 0.475313
vt 0.653787 0.475294
vt 0.345819 0.172266
vt 0.345819 0.246743
vt 0.687123 0.005840
vt 0.687123 0.084718
vt 0.222913 0.871587
vt 0.222913 0.919676
vt 0.049516 0.919677
vt 0.049516 0.871587
vt 0.831790 0.005840
vt 0.995563 0.005840
vt 0.995563 0.084718
vt 0.831790 0.084718
vt 0.557728 0.475653
vt 0.557728 0.453848
vt 0.578509 0.453848
vt 0.578509 0.475654
vt 0.793106 0.871587
vt 0.793106 0.834507
vt 0.808019 0.834506
vt 0.808019 0.871587
vt 0.824353 0.834506
vt 0.824353 0.871587
vt 0.841455 0.834506
vt 0.841455 0.871587
vt 0.858557 0.834507
vt 0.858557 0.871587
vt 0.874891 0.834507
vt 0.874891 0.871587
vt 0.889804 0.834506
vt 0.889804 0.871587
vt 0.825490 0.005840
vt 0.825490 0.084718
vt 0.489676 0.871587
vt 0.483871 0.871587
vt 0.483871 0.834507
vt 0.489676 0.834507
vt 0.489676 0.922557
vt 0.483871 0.919677
vt 0.902205 0.834506
vt 0.902205 0.871587
vt 0.874891 0.985806
vt 0.889804 0.985806
vt 0.858557 0.985806
vt 0.841455 0.985806
vt 0.824353 0.985806
vt 0.808019 0.985806
vt 0.793106 0.985806
vt 0.324809 0.834507
vt 0.324809 0.871587
vt 0.251899 0.834507
vt 0.251899 0.871587
vt 0.237317 0.871587
vt 0.237317 0.834507
vt 0.266481 0.834507
vt 0.266481 0.871587
vt 0.281063 0.834507
vt 0.281063 0.871587
vt 0.295645 0.834507
vt 0.295645 0.871587
vt 0.310227 0.834507
vt 0.310227 0.871587
vt 0.578509 0.498957
vt 0.557728 0.498958
vt 0.617159 0.834507
vt 0.617159 0.871587
vt 0.222913 0.834507
vt 0.963047 0.834507
vt 0.963047 0.871587
vt 0.942786 0.545577
vt 0.982745 0.545577
vt 0.982745 0.590405
vt 0.942786 0.590389
vt 0.822909 0.545577
vt 0.822910 0.590389
vt 0.014821 0.919677
vt 0.014821 0.871587
vt 0.674589 0.520293
vt 0.653809 0.520330
vt 0.653768 0.496962
vt 0.674548 0.496981
vt 0.653716 0.520506
vt 0.632936 0.520506
vt 0.632936 0.497138
vt 0.653716 0.497138
vt 0.371767 0.545578
vt 0.460024 0.545578
vt 0.460024 0.590923
vt 0.371767 0.590922
vt 0.330496 0.545577
vt 0.330496 0.590923
vt 0.322241 0.590923
vt 0.322241 0.545577
vt 0.338750 0.545577
vt 0.338750 0.590923
vt 0.347004 0.545578
vt 0.347004 0.590923
vt 0.355259 0.545578
vt 0.355259 0.590923
vt 0.363513 0.545578
vt 0.363513 0.590923
vt 0.307185 0.545577
vt 0.307185 0.590405
vt 0.014211 0.545577
vt 0.265520 0.545577
vt 0.265520 0.590405
vt 0.014211 0.591380
vt 0.632936 0.451982
vt 0.653716 0.451982
vt 0.653716 0.475350
vt 0.632936 0.475350
vt 0.352948 0.523855
vt 0.353125 0.468173
vt 0.367871 0.468173
vt 0.367871 0.526974
vt 0.367871 0.421025
vt 0.353125 0.421025
vt 0.119723 0.349704
vt 0.870176 0.349704
vt 0.781686 0.349704
vt 0.999973 0.349704
vt 0.970476 0.349704
vt 0.970476 0.312833
vt 0.999973 0.312833
vt 0.708905 0.450038
vt 0.635930 0.451930
vt 0.708905 0.378302
vt 0.635929 0.376470
vt 0.534767 0.675394
vt 0.534767 0.714614
vt 0.431121 0.675394
vt 0.431121 0.714614
vt 0.220105 0.675394
vt 0.220105 0.714614
vt 0.062323 0.675394
vt 0.119909 0.675394
vt 0.119909 0.714614
vt 0.062323 0.714614
vt 0.131499 0.675394
vt 0.131499 0.714614
vt 0.206299 0.714614
vt 0.206299 0.675394
vt 0.191359 0.714615
vt 0.191359 0.675394
vt 0.175802 0.714614
vt 0.175802 0.675394
vt 0.160245 0.714614
vt 0.160245 0.675394
vt 0.145306 0.714614
vt 0.145305 0.675394
vt 0.948855 0.754991
vt 0.979756 0.752647
vt 0.534767 0.754991
vt 0.431121 0.816794
vt 0.220105 0.816793
vt 0.119909 0.816793
vt 0.062323 0.816793
vt 0.131499 0.816793
vt 0.206299 0.816793
vt 0.191359 0.816793
vt 0.175802 0.816793
vt 0.160245 0.816793
vt 0.145305 0.816793
vt 0.250749 0.275963
vt 0.281141 0.275962
vt 0.412084 0.275963
vt 0.029735 0.523855
vt 0.018251 0.523855
vt 0.617159 0.985806
vt 0.963047 0.985806
vt 0.902205 0.985806
vt 0.237317 0.919676
vt 0.942786 0.648505
vt 0.822910 0.648505
vt 0.324809 0.919676
vt 0.310227 0.919677
vt 0.295645 0.919677
vt 0.281063 0.919677
vt 0.266481 0.919677
vt 0.251899 0.919676
vt 0.322241 0.648505
vt 0.313902 0.648505
vt 0.253964 0.648505
vt 0.014211 0.648504
vt 0.000027 0.275962
vt 0.371767 0.648505
vt 0.363513 0.648505
vt 0.355258 0.648505
vt 0.347004 0.648505
vt 0.338750 0.648505
vt 0.330496 0.648505
vt 0.460024 0.648505
vt -0.004377 0.005840
vt -0.004377 0.084718
vt 0.970476 0.275962
vt 0.999973 0.275962
vt 0.750849 0.349704
vt 0.049516 0.834507
vt 0.059569 0.816793
vt 0.059569 0.735207
vt 0.051595 0.816793
vt 0.051595 0.742910
vt 0.041850 0.816793
vt 0.041850 0.749475
vt 0.024091 0.816793
vt 0.024091 0.744908
vt 0.965994 0.985806
vt 0.965994 0.893621
vt 0.984954 0.985806
vt 0.974527 0.985806
vt 0.974526 0.901863
vt 0.984954 0.908887
vn 0.0000 0.0000 -1.0000
vn 0.0000 -0.0000 1.0000
vn 0.1133 -0.9936 0.0000
vn 0.0011 -0.9939 -0.1107
vn -1.0000 0.0000 -0.0000
vn 1.0000 0.0000 0.0000
vn -0.9999 0.0000 0.0144
vn 0.0002 -1.0000 0.0002
vn 0.5490 0.0000 -0.8358
vn 0.6632 0.0000 -0.7484
vn 0.7802 0.0000 -0.6256
vn 0.8671 -0.0000 -0.4981
vn 0.9335 -0.0000 -0.3587
vn 0.9807 -0.0000 -0.1957
vn 0.9986 -0.0000 -0.0531
vn -0.4472 0.0000 -0.8944
vn -0.5031 -0.0000 0.8642
vn 0.4961 0.0000 -0.8682
vn 0.9979 0.0000 -0.0654
vn 0.2588 0.0000 -0.9659
vn 0.0654 0.0000 -0.9979
vn 0.5000 0.0000 -0.8660
vn 0.7071 0.0000 -0.7071
vn 0.8660 0.0000 -0.5000
vn 0.9659 0.0000 -0.2588
vn 0.0013 -1.0000 0.0013
vn 0.0000 -1.0000 -0.0000
vn 1.0000 0.0000 -0.0021
vn -1.0000 -0.0000 0.0012
vn 0.4586 -0.0000 0.8886
vn 0.4472 -0.0000 0.8944
vn 0.4962 -0.0000 0.8682
vn 0.9984 0.0000 0.0562
vn 0.6032 -0.0000 0.7976
vn 0.7399 -0.0000 0.6727
vn 0.8435 -0.0000 0.5372
vn 0.9225 -0.0000 0.3860
vn 0.9779 -0.0000 0.2093
vn -0.8315 -0.3384 0.4405
vn 0.4610 -0.0000 0.8874
vn 0.5007 0.0000 -0.8656
usemtl None
s off
f 1/1/1 2/2/1 3/3/1 4/4/1
f 5/5/2 6/6/2 7/7/2 8/8/2
f 6/9/2 9/10/2 10/11/2 7/12/2
f 11/13/1 1/14/1 4/15/1 12/16/1
f 12/16/3 4/15/3 7/12/3 10/11/3
f 13/17/4 14/18/4 15/19/4 16/20/4
f 13/21/2 17/22/2 18/23/2 14/24/2
f 19/25/5 20/26/5 8/27/5 3/28/5
f 4/4/3 3/3/3 8/8/3 7/7/3
s 1
f 21/29/2 22/30/2 23/31/2 24/32/2
f 24/32/2 23/31/2 25/33/2
f 26/34/2 27/35/2 28/36/2
f 29/37/2 30/38/2 27/35/2 26/34/2
f 30/38/2 21/29/2 24/32/2 27/35/2
f 26/34/5 31/39/5 19/25/5 3/28/5
f 32/40/1 33/41/1 34/42/1 35/43/1
f 36/44/5 37/45/5 38/46/5 39/47/5
f 40/48/6 32/49/6 35/50/6 41/51/6
f 42/52/5 8/27/5 20/26/5 43/53/5
f 44/54/5 45/55/5 46/56/5 47/57/5
f 48/58/2 49/59/2 50/60/2 13/21/2
f 51/61/5 52/62/5 53/63/5 54/64/5
f 55/65/5 50/66/5 49/67/5 56/68/5
f 57/69/5 58/70/5 59/71/5 60/72/5
f 58/70/5 51/61/5 54/64/5 59/71/5
f 47/57/5 46/56/5 58/70/5 57/69/5
f 45/55/5 61/73/5 62/74/5 46/56/5
f 61/73/5 63/75/5 64/76/5 62/74/5
f 62/74/5 64/76/5 52/62/5 51/61/5
f 65/77/2 40/48/2 41/51/2 66/78/2
f 67/79/1 68/80/1 69/81/1 70/82/1
f 71/83/6 72/84/6 73/85/6 74/86/6
f 75/87/5 65/77/5 66/78/5 76/88/5
f 68/80/7 77/89/7 78/90/7 69/81/7
f 79/91/1 80/92/1 81/93/1 82/94/1
f 83/95/2 84/96/2 85/97/2 86/98/2
f 82/99/8 87/100/8 88/101/8 89/102/8
f 90/103/9 91/104/9 92/105/10 93/106/10
f 93/106/10 92/105/10 94/107/11 95/108/11
f 95/108/11 94/107/11 96/109/12 97/110/12
f 97/110/12 96/109/12 98/111/13 99/112/13
f 99/112/13 98/111/13 100/113/14 101/114/14
f 101/114/14 100/113/14 102/115/15 103/116/15
f 33/41/16 75/87/16 76/88/16 34/42/16
f 77/89/17 104/117/17 105/118/17 78/90/17
f 86/98/17 105/118/17 104/117/17 83/95/17
f 106/119/18 107/120/18 108/121/18 109/122/18
f 110/123/18 111/124/18 107/120/18 106/119/18
f 102/115/15 112/125/6 113/126/6 103/116/15
f 114/127/14 101/114/14 103/116/15 115/128/15
f 116/129/13 99/112/13 101/114/14 114/127/14
f 117/130/12 97/110/12 99/112/13 116/129/13
f 118/131/11 95/108/11 97/110/12 117/130/12
f 119/132/10 93/106/10 95/108/11 118/131/11
f 120/133/9 90/103/9 93/106/10 119/132/10
f 121/134/19 108/121/6 107/120/6 122/135/19
f 123/136/20 124/137/20 125/138/21 126/139/21
f 127/140/22 128/141/22 124/137/20 123/136/20
f 129/142/23 130/143/23 128/141/22 127/140/22
f 131/144/24 132/145/24 130/143/23 129/142/23
f 133/146/25 134/147/25 132/145/24 131/144/24
f 121/134/19 122/135/19 134/147/25 133/146/25
f 135/148/6 136/149/6 82/99/6 89/102/6
f 109/122/18 137/150/22 138/151/22 106/119/18
f 139/152/1 126/139/21 125/138/21 79/91/1
f 112/125/6 140/153/6 141/154/6 113/126/6
f 137/150/22 91/104/9 90/103/9 138/151/22
f 142/155/5 143/156/5 88/157/5 87/158/5
f 144/159/5 142/155/5 87/158/5 145/160/5
f 81/93/1 146/161/1 87/162/1 82/94/1
f 147/163/5 148/164/5 149/165/5 150/166/5
f 151/167/6 152/168/6 153/169/6 154/170/6
f 149/165/26 74/86/26 73/85/26 150/166/26
f 155/171/19 156/172/6 157/173/6 158/174/19
f 159/175/20 160/176/20 161/177/21 162/178/21
f 163/179/22 164/180/22 160/176/20 159/175/20
f 165/181/23 166/182/23 164/180/22 163/179/22
f 167/183/24 168/184/24 166/182/23 165/181/23
f 169/185/25 170/186/25 168/184/24 167/183/24
f 155/171/19 158/174/19 170/186/25 169/185/25
f 72/187/1 162/178/21 161/177/21 73/188/1
f 171/189/1 147/190/1 150/191/1 172/192/1
f 173/193/5 174/194/5 175/195/5 176/196/5
f 175/195/27 154/170/27 153/169/27 176/196/27
f 177/197/5 178/198/5 172/199/5 179/200/5
f 171/201/5 172/199/5 178/198/5 180/202/5
f 60/72/5 59/71/5 178/198/5 177/197/5
f 145/160/1 157/173/1 156/172/1 144/159/1
f 22/30/2 181/203/2 14/24/2 23/31/2
f 182/204/5 5/205/5 8/27/5 42/52/5
f 183/206/5 184/207/5 185/208/5 186/209/5
f 184/207/1 182/204/1 42/52/1 185/208/1
f 181/210/28 187/211/28 15/19/28 14/18/28
f 48/212/29 13/17/29 16/20/29 188/213/29
f 189/214/2 37/45/2 36/44/2 190/215/2
f 191/216/30 189/214/31 190/215/31 192/217/30
f 193/218/32 191/216/30 192/217/30 194/219/32
f 195/220/6 196/221/6 197/222/6 198/223/6
f 196/221/6 199/224/33 200/225/33 197/222/6
f 193/218/32 194/219/32 201/226/34 202/227/34
f 202/227/34 201/226/34 203/228/35 204/229/35
f 204/229/35 203/228/35 205/230/36 206/231/36
f 206/231/36 205/230/36 207/232/37 208/233/37
f 208/233/37 207/232/37 209/234/38 210/235/38
f 210/235/38 209/234/38 200/225/33 199/224/33
f 211/236/5 36/44/5 39/47/5 212/237/39
f 190/215/2 36/44/2 211/236/2 213/238/2
f 192/217/30 190/215/31 213/238/31 214/239/40
f 194/219/32 192/217/30 214/239/40 215/240/32
f 198/223/6 197/222/6 216/241/6 217/242/6
f 197/222/6 200/225/33 218/243/33 216/241/6
f 194/219/32 215/240/32 219/244/34 201/226/34
f 201/226/34 219/244/34 220/245/35 203/228/35
f 203/228/35 220/245/35 221/246/36 205/230/36
f 205/230/36 221/246/36 222/247/37 207/232/37
f 207/232/37 222/247/37 223/248/38 209/234/38
f 209/234/38 223/248/38 218/243/33 200/225/33
f 25/33/2 23/31/2 224/249/2 225/250/2
f 26/34/2 28/36/2 226/251/2 31/39/2
f 28/36/2 25/33/2 225/250/2 226/251/2
f 55/65/5 45/55/5 44/54/5 227/252/5
f 55/65/5 227/252/5 228/253/5 50/66/5
f 138/151/22 90/103/9 120/133/9 229/254/41
f 113/126/6 141/154/6 230/255/6 231/256/6
f 79/91/1 125/138/21 232/257/21 80/92/1
f 106/119/18 138/151/22 229/254/41 110/123/18
f 145/160/5 87/158/5 146/258/5 233/259/5
f 122/135/19 234/260/19 235/261/25 134/147/25
f 134/147/25 235/261/25 236/262/24 132/145/24
f 132/145/24 236/262/24 237/263/23 130/143/23
f 130/143/23 237/263/23 238/264/22 128/141/22
f 128/141/22 238/264/22 239/265/20 124/137/20
f 124/137/20 239/265/20 232/257/21 125/138/21
f 122/135/19 107/120/6 111/124/6 234/260/19
f 103/116/15 113/126/6 231/256/6 115/128/15
f 73/188/1 161/177/21 240/266/21 241/267/1
f 23/31/2 14/24/2 18/23/2 224/249/2
f 172/192/1 150/191/1 242/268/1 179/269/1
f 13/21/2 50/60/2 228/270/2 17/22/2
f 158/174/19 243/271/19 244/272/25 170/186/25
f 170/186/25 244/272/25 245/273/24 168/184/24
f 168/184/24 245/273/24 246/274/23 166/182/23
f 166/182/23 246/274/23 247/275/22 164/180/22
f 164/180/22 247/275/22 248/276/20 160/176/20
f 160/176/20 248/276/20 240/266/21 161/177/21
f 158/174/19 157/173/6 249/277/6 243/271/19
f 150/191/1 73/188/1 241/267/1 242/268/1
f 145/160/1 233/259/1 249/277/1 157/173/1
f 84/278/6 67/79/6 70/82/6 85/279/6
f 186/209/5 185/208/5 250/280/5 251/281/5
f 185/208/1 42/52/1 43/53/1 250/280/1
f 2/282/5 29/37/5 26/34/5 3/28/5
f 136/283/1 139/152/1 79/91/1 82/94/1
f 198/223/6 217/242/6 252/284/6 253/285/6
f 253/285/6 252/284/6 254/286/6 255/287/6
f 255/287/6 254/286/6 256/288/6 257/289/6
f 256/288/6 258/290/6 259/291/6 257/289/6
f 260/292/6 230/255/6 141/154/6 261/293/6
f 258/294/6 262/295/6 263/296/6 259/297/6
f 262/295/6 260/292/6 261/293/6 263/296/6
