# Blender v2.82 (sub 7) OBJ File: ''
# www.blender.org
mtllib OuterCasinoWall.mtl
o Plane.000_Plane.000
v 71.000000 9.922066 36.000000
v 68.000000 9.922066 36.000000
v 68.437866 2.249029 36.000000
v 70.534828 2.249029 36.000000
v 53.000000 9.922066 36.000000
v 49.999996 9.922066 36.000000
v 50.336208 2.243661 36.000000
v 52.421593 2.249029 36.000000
v 29.836967 2.243661 36.000000
v 29.836967 -0.000048 36.000000
v 50.336208 -0.000048 36.000000
v 52.421593 -0.000048 36.000000
v 68.437866 -0.000048 36.000000
v 70.534828 -0.000048 36.000000
v 72.513664 -0.000048 36.000000
v 72.513664 2.249029 36.000000
v 29.836967 9.922066 36.000000
v 27.738310 2.242846 36.000000
v 27.738310 9.922066 36.000000
v 10.980309 9.922066 36.000000
v 10.980309 2.242846 36.000000
v 27.738310 -0.000048 36.000000
v 10.980309 -0.000048 36.000000
v 72.513664 9.922066 36.000000
v 50.336208 0.233662 36.000000
v 29.836967 0.233662 36.000000
v 27.738310 0.233662 36.000000
v 10.980309 0.233662 36.000000
v 68.437866 0.233662 36.000000
v 52.421593 0.233662 36.000000
v 70.534828 0.233662 36.000000
v 72.513664 0.233662 36.000000
vt 0.785049 0.548342
vt 0.755816 0.548342
vt 0.760083 0.473574
vt 0.780517 0.473574
vt 0.609652 0.548342
vt 0.580420 0.548342
vt 0.583696 0.473521
vt 0.604016 0.473574
vt 0.383946 0.548342
vt 0.383946 0.473521
vt 0.363496 0.473513
vt 0.363496 0.548342
vt 0.200201 0.548342
vt 0.200201 0.473513
vt 0.363496 0.462586
vt 0.200201 0.462586
vt 0.799799 0.473574
vt 0.799799 0.548342
vt 0.383946 0.462590
vt 0.583696 0.462590
vt 0.604016 0.462616
vt 0.760083 0.462616
vt 0.780517 0.453937
vt 0.799799 0.453937
vt 0.383946 0.451658
vt 0.583696 0.451658
vt 0.604016 0.451658
vt 0.760083 0.451658
vt 0.780517 0.451658
vt 0.799799 0.451658
vt 0.363496 0.451658
vt 0.200201 0.451658
vn 0.0000 0.0000 1.0000
usemtl None.005
s 1
f 1/1/1 2/2/1 3/3/1 4/4/1
f 5/5/1 6/6/1 7/7/1 8/8/1
f 6/6/1 17/9/1 9/10/1 7/7/1
f 18/11/1 9/10/1 17/9/1 19/12/1
f 18/11/1 19/12/1 20/13/1 21/14/1
f 27/15/1 18/11/1 21/14/1 28/16/1
f 2/2/1 5/5/1 8/8/1 3/3/1
f 1/1/1 4/4/1 16/17/1 24/18/1
f 7/7/1 9/10/1 26/19/1 25/20/1
f 3/3/1 8/8/1 30/21/1 29/22/1
f 4/4/1 31/23/1 32/24/1 16/17/1
usemtl Material.002
f 25/20/1 26/19/1 10/25/1 11/26/1
f 29/22/1 30/21/1 12/27/1 13/28/1
f 31/23/1 14/29/1 15/30/1 32/24/1
f 22/31/1 27/15/1 28/16/1 23/32/1
